# xmcd CD database file
#
# Track frame offsets:
#	150
#	15545
#	46267
#	68379
#	91221
#	106750
#	119412
#	139600
#	151388
#	171154
#	181619
#	209873
#	232234
#	262460
#	276847
#	291809
#	304100
#
# Disc length: 4252 seconds
#
# Revision: 1
# Processed by: cddbd v1.5.2PL0 Copyright (c) Steve Scherf et al.
# Submitted via: CDex 1.70beta3
#
DISCID=f3109a11
DTITLE=Various Artist - Jazz For You 4 Take The "A" Train
DYEAR=2012
DGENRE=Jazz
TTITLE0=Sing,Sing,Sing - Benny Goodman
TTITLE1=St. Thomas - Sonny Rollins
TTITLE2=Someday My Prince Will Come - Bill Evans
TTITLE3=What's New - Helen Merrill
TTITLE4=C Jam Blues - Oscar Peterson
TTITLE5=Love Letters - Peggy Lee
TTITLE6=I Wish I Knew - Blue Mitchell
TTITLE7=Softly As In A Morning Sunrise - Lorez Alexandria
TTITLE8=Volare - Barney Kessel with Shelly Manne and Ray Brown
TTITLE9=What A Wonderful World - Louis Armstrong
TTITLE10=Violets For Your Furs - John Coltrane
TTITLE11=Django - Stephane Grappelli
TTITLE12=Take The "A" Train - Ella Fitzgerald, Duke Ellington and his Orchestra
TTITLE13=Solitude - Billie Holiday
TTITLE14=Round Midnight - Benny Carter
TTITLE15=Unforgetable - Dinah Washington
TTITLE16=Moonlight Serenade - The Glenn Miller Orchestra
EXTD=YEAR: 2012
EXTT0=
EXTT1=
EXTT2=
EXTT3=
EXTT4=
EXTT5=
EXTT6=
EXTT7=
EXTT8=
EXTT9=
EXTT10=
EXTT11=
EXTT12=
EXTT13=
EXTT14=
EXTT15=
EXTT16=
PLAYORDER=
